<svg width="1024" height="1024" viewBox="0 0 1024 1024" fill="none" xmlns="http://www.w3.org/2000/svg">
  <defs>
    <radialGradient id="bg" cx="0" cy="0" r="1" gradientUnits="userSpaceOnUse" gradientTransform="translate(512 512) rotate(90) scale(520)">
      <stop offset="0" stop-color="#112A33"/>
      <stop offset="0.5" stop-color="#081419"/>
      <stop offset="1" stop-color="#040708"/>
    </radialGradient>
    <radialGradient id="coreGlow" cx="0" cy="0" r="1" gradientUnits="userSpaceOnUse" gradientTransform="translate(512 512) rotate(90) scale(180)">
      <stop offset="0" stop-color="#C8FFFF" stop-opacity="0.92"/>
      <stop offset="0.38" stop-color="#4BE4FF" stop-opacity="0.58"/>
      <stop offset="0.72" stop-color="#1A8DA5" stop-opacity="0.18"/>
      <stop offset="1" stop-color="#1A8DA5" stop-opacity="0"/>
    </radialGradient>
    <radialGradient id="haloGlow" cx="0" cy="0" r="1" gradientUnits="userSpaceOnUse" gradientTransform="translate(512 512) rotate(90) scale(362)">
      <stop offset="0.72" stop-color="#37D8FF" stop-opacity="0"/>
      <stop offset="0.9" stop-color="#37D8FF" stop-opacity="0.18"/>
      <stop offset="1" stop-color="#37D8FF" stop-opacity="0"/>
    </radialGradient>
    <linearGradient id="lineFade" x1="0" y1="120" x2="0" y2="904" gradientUnits="userSpaceOnUse">
      <stop offset="0" stop-color="#4AE1FF" stop-opacity="0"/>
      <stop offset="0.2" stop-color="#4AE1FF" stop-opacity="0.16"/>
      <stop offset="0.5" stop-color="#4AE1FF" stop-opacity="0.44"/>
      <stop offset="0.8" stop-color="#4AE1FF" stop-opacity="0.16"/>
      <stop offset="1" stop-color="#4AE1FF" stop-opacity="0"/>
    </linearGradient>
    <pattern id="columns" width="16" height="1024" patternUnits="userSpaceOnUse">
      <rect x="7" y="110" width="2" height="804" rx="1" fill="url(#lineFade)"/>
      <rect x="10" y="188" width="1" height="652" rx="0.5" fill="#70EEFF" fill-opacity="0.18"/>
    </pattern>
    <filter id="blurLarge" x="-20%" y="-20%" width="140%" height="140%" color-interpolation-filters="sRGB">
      <feGaussianBlur stdDeviation="32"/>
    </filter>
    <filter id="blurMedium" x="-20%" y="-20%" width="140%" height="140%" color-interpolation-filters="sRGB">
      <feGaussianBlur stdDeviation="14"/>
    </filter>
    <filter id="blurSmall" x="-20%" y="-20%" width="140%" height="140%" color-interpolation-filters="sRGB">
      <feGaussianBlur stdDeviation="6"/>
    </filter>
    <clipPath id="disc">
      <circle cx="512" cy="512" r="352"/>
    </clipPath>
  </defs>

  <rect width="1024" height="1024" fill="url(#bg)"/>

  <circle cx="512" cy="512" r="364" stroke="#50EDFF" stroke-opacity="0.12" stroke-width="2"/>
  <circle cx="512" cy="512" r="364" stroke="#50EDFF" stroke-opacity="0.08" stroke-width="18" filter="url(#blurLarge)"/>
  <circle cx="512" cy="512" r="234" fill="url(#haloGlow)"/>

  <g clip-path="url(#disc)">
    <rect x="160" y="160" width="704" height="704" fill="url(#columns)"/>

    <g filter="url(#blurSmall)" opacity="0.72">
      <circle cx="338" cy="364" r="5" fill="#72F3FF"/>
      <circle cx="372" cy="432" r="4" fill="#72F3FF"/>
      <circle cx="418" cy="286" r="4" fill="#72F3FF"/>
      <circle cx="452" cy="356" r="5" fill="#72F3FF"/>
      <circle cx="486" cy="448" r="6" fill="#A1FBFF"/>
      <circle cx="520" cy="322" r="6" fill="#A1FBFF"/>
      <circle cx="542" cy="390" r="5" fill="#72F3FF"/>
      <circle cx="586" cy="300" r="4" fill="#72F3FF"/>
      <circle cx="628" cy="382" r="6" fill="#72F3FF"/>
      <circle cx="684" cy="438" r="4" fill="#72F3FF"/>
      <circle cx="332" cy="542" r="5" fill="#72F3FF"/>
      <circle cx="392" cy="594" r="6" fill="#A1FBFF"/>
      <circle cx="444" cy="522" r="4" fill="#72F3FF"/>
      <circle cx="502" cy="612" r="6" fill="#A1FBFF"/>
      <circle cx="562" cy="548" r="5" fill="#72F3FF"/>
      <circle cx="614" cy="618" r="6" fill="#A1FBFF"/>
      <circle cx="678" cy="560" r="4" fill="#72F3FF"/>
      <circle cx="706" cy="490" r="5" fill="#72F3FF"/>
      <circle cx="470" cy="690" r="4" fill="#72F3FF"/>
      <circle cx="556" cy="690" r="4" fill="#72F3FF"/>
    </g>

    <g opacity="0.5">
      <rect x="282" y="264" width="8" height="54" rx="4" fill="#62EBFF" fill-opacity="0.24"/>
      <rect x="314" y="346" width="6" height="92" rx="3" fill="#62EBFF" fill-opacity="0.24"/>
      <rect x="358" y="250" width="8" height="128" rx="4" fill="#62EBFF" fill-opacity="0.24"/>
      <rect x="406" y="220" width="6" height="166" rx="3" fill="#62EBFF" fill-opacity="0.22"/>
      <rect x="450" y="182" width="8" height="254" rx="4" fill="#62EBFF" fill-opacity="0.28"/>
      <rect x="496" y="162" width="8" height="382" rx="4" fill="#62EBFF" fill-opacity="0.32"/>
      <rect x="540" y="182" width="8" height="258" rx="4" fill="#62EBFF" fill-opacity="0.28"/>
      <rect x="588" y="220" width="6" height="174" rx="3" fill="#62EBFF" fill-opacity="0.22"/>
      <rect x="636" y="250" width="8" height="128" rx="4" fill="#62EBFF" fill-opacity="0.24"/>
      <rect x="684" y="346" width="6" height="94" rx="3" fill="#62EBFF" fill-opacity="0.24"/>
      <rect x="734" y="264" width="8" height="56" rx="4" fill="#62EBFF" fill-opacity="0.24"/>
    </g>
  </g>

  <circle cx="512" cy="512" r="164" fill="url(#coreGlow)"/>
  <circle cx="512" cy="512" r="118" stroke="#66EFFF" stroke-opacity="0.45" stroke-width="3"/>
  <circle cx="512" cy="512" r="118" stroke="#8EFAFF" stroke-opacity="0.2" stroke-width="14" filter="url(#blurMedium)"/>
  <ellipse cx="512" cy="512" rx="86" ry="22" fill="#E3FFFF" fill-opacity="0.9" filter="url(#blurMedium)"/>
  <ellipse cx="512" cy="512" rx="44" ry="10" fill="#F9FFFF" filter="url(#blurSmall)"/>
</svg>
